<svg width="24" height="24" viewBox="0 0 24 24" fill="none" xmlns="http://www.w3.org/2000/svg">
<path d="M6.84375 10.5L7.3125 8.475L5.71875 11.625L6.84375 10.5Z" fill="#A9B2C3"/>
<path d="M16.65 1.875L16.3125 3.6375L14.0625 6.3L9.86249 8.49375L16.65 1.875Z" fill="#A9B2C3"/>
<path d="M16.1813 0L14.8688 3.6L9.8625 8.475L6.91875 12.1312L6.75 12.3187L6.39375 12.375L7.5375 7.55625L16.1813 0Z" fill="#A9B2C3"/>
<path d="M6.45 12.2438L9.88125 8.475L22.4625 1.89375L19.2937 6.2625L10.875 11.175L6.91875 12.1313L6.45 12.2438Z" fill="#2C3E50"/>
<path d="M10.875 11.175L19.275 6.2625L19.575 5.85L21.9938 4.425L19.9125 7.36875L18.9938 8.08125L14.2875 11.4563L11.4188 12.4125L10.875 11.175Z" fill="#A9B2C3"/>
<path d="M14.2875 11.4562L17.325 10.5L18.1313 9.95625L20.775 7.5375L18.9938 8.08125L14.2875 11.4562Z" fill="#2C3E50"/>
<path d="M6.91875 12.1313L10.875 11.175L11.4188 12.3938L9.09375 13.9125L6.75 14.625V12.3188L6.91875 12.1313Z" fill="#A9B2C3"/>
<path d="M11.7188 12.2438L8.28751 13.9688L10.9313 13.8L15.4688 12.5063L19.2563 9.9L11.7188 12.2438Z" fill="#A9B2C3"/>
<path d="M15.8437 12.2625L15.4687 12.5062L10.9312 13.8L13.9687 13.575L14.8125 13.4062L17.5125 11.9437L15.8437 12.2625Z" fill="#A9B2C3"/>
<path d="M16.65 16.5188L17.8312 17.4563V18.0563L16.65 16.5188Z" fill="#2C3E50"/>
<path d="M7.81875 14.8125L10.0688 14.6062L13.2938 16.9312L14.775 20.5687L12.9375 23.9625L13.2375 21.075L13.1625 20.925L11.775 17.9062L7.21875 14.925L7.81875 14.8125Z" fill="#A9B2C3"/>
<path d="M13.2938 16.9313L15.3188 21.9188V23.4938L16.1813 20.5125V18.45L11.7563 15.8063L13.2938 16.9313Z" fill="#2C3E50"/>
<path d="M11.7188 22.2375L11.1562 23.6812L13.5187 20.4562L12.075 17.2875L11.7375 17.8125V22.2375H11.7188Z" fill="#A9B2C3"/>
<path d="M11.3063 17.6062L11.1375 20.2125L9.91876 21.375L9.97501 22.275L11.025 22.6875L11.7188 21.3562V17.85L11.3063 17.6062Z" fill="#A9B2C3"/>
<path d="M10.8 17.2875L11.175 17.5312L11.0062 18.4125L10.3875 19.7437L8.64374 19.05L8.58749 18.3562L8.69999 18.3187L9.24374 17.9437L9.58124 17.1375L10.8 17.2875Z" fill="#A9B2C3"/>
<path d="M7.21874 14.925L10.8 17.2688H9.63749L7.48124 15.4688L5.49374 14.925H7.21874Z" fill="#2C3E50"/>
<path d="M10.2375 14.5875L13.7812 14.25L15.8437 13.575H13.9687L8.88749 13.9312L6.99374 14.1L6.43124 15.075L7.81874 14.8125L10.2375 14.5875Z" fill="#A9B2C3"/>
<path d="M8.60625 20.85V21.1687L9.35625 20.85L9.45 21L8.775 21.375L8.45625 22.0875L9.13125 21.45L9.28125 21.4875L9.13125 23.2875L9.95625 22.2562L9.9 21.3562L10.05 21.2437L9.675 20.3437L8.60625 20.85ZM8.325 17.2875L7.25625 17.7937V18.1125L7.9875 17.775L8.1 17.925L7.40625 18.3187L7.125 19.0125L7.78125 18.3937L7.93125 18.4125L7.78125 20.1937L8.68125 19.1062L8.60625 18.2812H8.7375L8.325 17.2875Z" fill="#2C3E50"/>
<path d="M6.18749 13.1063L4.72499 13.725H6.18749L3.86249 14.6625L2.58749 15.375L2.49374 15.6375L4.57499 14.925H6.50624L6.74999 14.4938V12.2812L4.40624 12.8625L6.18749 13.1063Z" fill="#A9B2C3"/>
<path d="M2.60624 15.3937L3.88124 14.6812L6.20624 13.7437H4.74374L6.20624 13.125L4.44374 12.8812L2.41874 13.4812L1.55624 14.85L2.60624 15.3937Z" fill="#A9B2C3"/>
<path d="M2.09999 16.5L1.55624 16.0313V14.8313L2.60624 15.3938L2.36249 16.05L2.62499 16.5H2.09999Z" fill="#2C3E50"/>
<path d="M2.79376 14.7375L2.43751 14.475L1.91251 14.7562" stroke="#2C3E50" stroke-width="0.3"/>
<path d="M11.7375 13.95L15.675 16.5187L17.0625 18.4312L17.55 20.175L16.2 18.4687L9.86249 14.6812L11.7375 13.95Z" fill="#A9B2C3"/>
<path d="M14.6437 14.6812L13.6687 14.2312L12.3937 14.3625L12.5437 14.475L14.6437 14.6812Z" fill="#A9B2C3"/>
<path d="M16.875 20.8688L16.8563 22.4063L16.4062 22.7063L16.65 21.4688L16.875 20.8688Z" fill="#A9B2C3"/>
</svg>
