<svg width="24" height="24" viewBox="0 0 24 24" fill="none" xmlns="http://www.w3.org/2000/svg">
<path d="M7.36272 20.4319L7.30948 20.3256C7.20316 20.1127 7.20316 19.8999 7.25641 19.6339H1.51122L10.0228 4.52625L13.587 10.9631L14.7572 10.1119L11.193 3.675C11.1399 3.56869 10.7143 2.93044 10.0228 2.93044C9.70347 2.93044 9.22479 3.03675 8.85241 3.72825L0.234537 18.9956C0.181287 19.1554 -0.191088 19.8469 0.128037 20.4319C0.34085 20.7512 0.660162 21.0703 1.40491 21.0703H8.6396C7.89485 21.0703 7.52247 20.751 7.36272 20.4319Z" fill="#A9B2C3"/>
<path d="M23.7469 19.0481L16.8313 6.60019C16.725 6.49388 16.3526 5.80219 15.6609 5.80219C15.3418 5.80219 14.8631 5.96175 14.4907 6.60019L13.5864 8.08969V10.9624L15.6611 7.39819L22.5234 19.6333H19.9168C19.9604 19.8866 19.9231 20.1472 19.8103 20.3781L19.7571 20.4313C19.4379 21.0163 18.6399 21.0696 18.5336 21.0696H22.5765C22.7361 21.0696 23.4808 21.0165 23.8532 20.4313C24.0127 20.1653 24.1192 19.6866 23.7469 19.0481Z" fill="#A9B2C3"/>
<path d="M19.9706 20.4319V20.3786L20.0239 20.2723C20.0769 20.0595 20.1302 19.8467 20.0769 19.6339L19.8643 18.9956L14.4384 9.52669L13.6404 8.09044H13.5872L12.7892 9.52669L7.36332 18.9954L7.15069 19.6339C7.09915 19.9044 7.13645 20.1843 7.257 20.4319C7.46982 20.751 7.78894 21.0703 8.53369 21.0703H18.6411C18.8006 21.0703 19.5986 21.0171 19.971 20.4319H19.9706ZM13.587 10.9629L18.5344 19.6339H8.63982L13.587 10.9629Z" fill="#2C3E50"/>
</svg>
