<svg width="16" height="16" viewBox="0 0 16 16" fill="none" xmlns="http://www.w3.org/2000/svg">
<path d="M10.7344 6.28719C10.8385 6.18411 10.9791 6.12628 11.1256 6.12628C11.2721 6.12628 11.4127 6.18411 11.5168 6.28719C11.5682 6.33781 11.609 6.39814 11.6369 6.46469C11.6647 6.53123 11.6791 6.60265 11.6791 6.67479C11.6791 6.74693 11.6647 6.81835 11.6369 6.88489C11.609 6.95143 11.5682 7.01177 11.5168 7.06239L8.3904 10.1264C8.28606 10.2293 8.14538 10.287 7.9988 10.287C7.85223 10.287 7.71155 10.2293 7.6072 10.1264L4.4808 7.06239C4.4294 7.01177 4.38858 6.95143 4.36072 6.88489C4.33286 6.81835 4.31851 6.74693 4.31851 6.67479C4.31851 6.60265 4.33286 6.53123 4.36072 6.46469C4.38858 6.39814 4.4294 6.33781 4.4808 6.28719C4.58491 6.18411 4.7255 6.12628 4.872 6.12628C5.01851 6.12628 5.15909 6.18411 5.2632 6.28719L8 8.79999L10.7344 6.28719Z" fill="black"/>
</svg>
