<svg width="24" height="24" viewBox="0 0 24 24" fill="none" xmlns="http://www.w3.org/2000/svg">
<g clip-path="url(#clip0_17_78)">
<path d="M5.11331 0.0206288C5.07581 0.0352538 4.02206 0.635629 2.772 1.35413C1.25738 2.22488 0.479438 2.6835 0.437813 2.72663C0.402188 2.76882 0.374063 2.817 0.355688 2.86913C0.324376 2.97488 0.322126 18.4288 0.353813 18.54C0.365251 18.5831 0.402563 18.6465 0.436313 18.6814C0.518063 18.7676 9.56081 23.967 9.67069 23.9921C9.72169 24.0043 9.77888 24.0023 9.83569 23.9865C9.95906 23.9556 18.9782 18.7676 19.0584 18.6829C19.0913 18.6463 19.1288 18.5831 19.1409 18.5402C19.1567 18.489 19.1625 17.6814 19.1625 15.9799V13.4936L21.3611 12.2308C23.4341 11.0389 23.5611 10.9643 23.6143 10.8825L23.6687 10.7944V8.11632C23.6687 5.20107 23.6743 5.36513 23.559 5.25975C23.5281 5.23238 22.4719 4.61607 21.2096 3.88913L18.9169 2.57063H18.6621L16.419 3.85875C15.1841 4.569 14.1345 5.17632 14.0833 5.20932C14.0323 5.24307 13.9714 5.30532 13.9464 5.3505L13.9011 5.42869L13.8909 7.9515L13.8819 10.4753L12.0296 11.5421C11.0107 12.1279 10.1627 12.6128 10.1447 12.6173C10.1119 12.6264 10.1096 12.3863 10.1096 7.74863V2.86744L10.0609 2.78363C9.99975 2.68144 10.2739 2.84438 7.52138 1.26225C5.21306 -0.0652462 5.26856 -0.0374962 5.11331 0.0206288ZM7.23525 1.95319C8.20088 2.50725 8.991 2.96569 8.991 2.97132C8.991 2.97713 8.14425 3.4665 7.10944 4.06125L5.22675 5.14219L3.34744 4.06144C2.31488 3.4665 1.46869 2.97713 1.46869 2.97132C1.46869 2.96569 2.31338 2.47632 3.34613 1.88288L5.22094 0.804379L5.35031 0.874879C5.97975 1.23244 6.60806 1.59188 7.23525 1.95319ZM20.673 4.43963C21.6896 5.025 22.5308 5.50875 22.5386 5.51663C22.56 5.53594 18.831 7.67944 18.78 7.67719C18.729 7.67569 15.0459 5.55188 15.0474 5.526C15.0493 5.49657 18.7549 3.36469 18.7924 3.3705C18.8094 3.37463 19.6562 3.85613 20.673 4.43963ZM3.05625 4.749L4.84838 5.78082L4.85869 10.8896L4.86806 15.9994L4.91175 16.0684C4.93463 16.1048 4.97775 16.1544 5.00925 16.1773C5.03888 16.1989 6.03619 16.7672 7.22513 17.4381L9.38513 18.6579V20.8193C9.38513 22.0054 9.37706 22.9785 9.36694 22.9785C9.35925 22.9785 7.49194 21.9099 5.21869 20.6018L1.08619 18.2252L1.08056 10.9191L1.077 3.61519L1.16888 3.666C1.22194 3.69413 2.07019 4.18125 3.05606 4.74882L3.05625 4.749ZM9.38513 8.34525V13.0532L9.31256 13.1006C9.21413 13.1629 5.625 15.2259 5.61281 15.2259C5.60719 15.2259 5.60269 13.1004 5.60269 10.5023L5.60494 5.78063L7.47994 4.70213C8.511 4.10869 9.36131 3.62719 9.37144 3.63075C9.37875 3.63525 9.38513 5.757 9.38513 8.34525ZM16.5383 7.26244L18.4176 8.343V10.485C18.4176 12.5171 18.4155 12.6263 18.3846 12.6144C18.3645 12.6068 17.5142 12.1194 16.494 11.5318L14.6359 10.4649V8.32369C14.6359 7.14488 14.6419 6.18169 14.6475 6.18169C14.6556 6.18169 15.5057 6.66769 16.5383 7.26244ZM22.944 8.31C22.944 9.48263 22.9361 10.4498 22.9283 10.4591C22.9148 10.4807 19.1978 12.6225 19.1741 12.6225C19.1683 12.6225 19.1625 11.6597 19.1625 10.4807V8.33944L21.0375 7.26019C22.0701 6.66769 22.9204 6.18169 22.9283 6.18169C22.9382 6.18169 22.944 7.13888 22.944 8.31ZM17.9987 13.2999L9.75094 18.0075L6.0105 15.8799C6.0105 15.8799 14.25 11.1144 14.283 11.1268L17.9987 13.2999ZM18.414 16.08L18.4076 18.2254L14.2774 20.6021C12.0049 21.9101 10.137 22.9787 10.1276 22.9787C10.1177 22.9787 10.1098 22.1053 10.1098 20.8194V18.6581L14.2498 16.2971C16.5246 14.9991 18.3938 13.9365 18.4037 13.9343C18.4118 13.9343 18.4153 14.8995 18.4138 16.0798L18.414 16.08Z" fill="#A9B2C3"/>
</g>
<defs>
<clipPath id="clip0_17_78">
<rect width="24" height="24" fill="white"/>
</clipPath>
</defs>
</svg>
