<svg width="24" height="24" viewBox="0 0 24 24" fill="none" xmlns="http://www.w3.org/2000/svg">
<g clip-path="url(#clip0_17_80)">
<path d="M22.0665 18.4204C20.7591 18.3846 19.7608 18.5068 18.9068 18.8664C18.6643 18.969 18.2777 18.9712 18.2381 19.2752C18.3714 19.4151 18.3919 19.6237 18.4982 19.7959C18.7018 20.1248 19.0461 20.5671 19.353 20.7994C19.6884 21.0521 20.0342 21.3231 20.3938 21.5421C21.0339 21.9324 21.7481 22.1552 22.3633 22.5456C22.7267 22.7762 23.0869 23.0662 23.4414 23.3263C23.6166 23.4546 23.7345 23.6544 23.9614 23.7351V23.6985C23.8419 23.5462 23.8112 23.3366 23.7013 23.1778L23.2179 22.6944C22.7454 22.0674 22.1456 21.5167 21.5085 21.0596C21.0002 20.6942 19.8621 20.2012 19.6504 19.6102L19.6131 19.5729C19.9734 19.5319 20.3953 19.4016 20.7285 19.3121C21.2873 19.1627 21.7869 19.2015 22.3633 19.0521L23.1441 18.8295V18.6808C22.8525 18.3819 22.6446 17.9857 22.3268 17.7148C21.4941 17.0059 20.5858 16.2983 19.6506 15.708C19.1319 15.3806 18.4911 15.1674 17.9411 14.8899C17.7559 14.7969 17.4313 14.7478 17.3091 14.5926C17.0205 14.2249 16.863 13.7584 16.6404 13.3292C16.1739 12.4305 15.7161 11.4499 15.3023 10.5043C15.0203 9.85987 14.8365 9.22406 14.4849 8.64619C12.7974 5.87175 10.9811 4.19681 8.16713 2.55094C7.56807 2.20088 6.84732 2.0625 6.0855 1.88156L4.85869 1.8075C4.60894 1.70344 4.34963 1.398 4.11525 1.24931C3.18319 0.660001 0.791816 -0.620999 0.101066 1.0635C-0.334684 2.12625 0.753003 3.16331 1.14188 3.70238C1.41507 4.07963 1.76438 4.50356 1.95919 4.92844C2.08819 5.20819 2.11013 5.48794 2.22 5.78325C2.48963 6.51131 2.72532 7.30369 3.07482 7.97606C3.25125 8.31656 3.44607 8.67487 3.66957 8.97956C3.80588 9.16631 4.04082 9.24919 4.07832 9.537C3.84825 9.85856 3.83513 10.3573 3.70632 10.7638C3.12544 12.5957 3.34519 14.8719 4.18969 16.227C4.449 16.6438 5.05988 17.5357 5.89913 17.1937C6.63375 16.8941 6.46969 15.9677 6.67988 15.1496C6.7275 14.9644 6.69825 14.8281 6.79125 14.7036V14.7409L7.46063 16.0783C7.95582 16.8759 8.83388 17.7094 9.57882 18.2719C9.96488 18.5634 10.2688 19.0672 10.7683 19.2379V19.2006H10.731C10.6343 19.0496 10.4828 18.9874 10.3598 18.8666C10.0689 18.5811 9.74532 18.2265 9.50494 17.8999C8.8275 16.9807 8.229 15.9742 7.68413 14.9271C7.42332 14.4268 7.197 13.8754 6.97725 13.3663C6.89232 13.17 6.89382 12.8726 6.71719 12.7716C6.477 13.1443 6.12244 13.4462 5.93644 13.8862C5.63982 14.5901 5.601 15.4492 5.49113 16.3391C5.42588 16.3626 5.45457 16.3464 5.4165 16.3764C4.89863 16.2512 4.71713 15.7187 4.52438 15.261C4.038 14.1052 3.94725 12.2441 4.37569 10.9127C4.48632 10.5684 4.98732 9.4845 4.78444 9.16594C4.68769 8.84887 4.36838 8.66494 4.18969 8.4225C3.96844 8.12287 3.74813 7.72819 3.59494 7.38169C3.1965 6.48075 3.01125 5.46863 2.59144 4.55756C2.39082 4.12181 2.05238 3.68081 1.77413 3.29419C1.46569 2.865 1.12088 2.5485 0.882003 2.03006C0.797066 1.84556 0.682128 1.55025 0.807378 1.36144C0.847691 1.23319 0.904128 1.17975 1.03069 1.13813C1.24594 0.971813 1.84669 1.19381 2.07075 1.28681C2.667 1.53431 3.16425 1.77019 3.66957 2.10488C3.91125 2.26519 4.15669 2.57588 4.44957 2.66231H4.78425C5.30719 2.7825 5.89313 2.69888 6.38232 2.84756C7.2465 3.11044 8.02069 3.51919 8.72382 3.963C10.8654 5.31581 12.6174 7.2405 13.8156 9.53812C14.0081 9.90806 14.0918 10.2604 14.2616 10.6528C14.6036 11.4439 15.0351 12.2576 15.3756 13.0318C15.7161 13.803 16.0472 14.5824 16.5283 15.2246C16.7811 15.5623 17.7566 15.7432 18.2004 15.9307C18.5117 16.0618 19.0215 16.1989 19.3159 16.3768C19.8784 16.716 20.4233 17.1202 20.9514 17.4915C21.2143 17.6775 22.0258 18.0855 22.0661 18.4209L22.0665 18.4204ZM5.45307 4.26038C5.18063 4.25531 4.98807 4.28963 4.78444 4.33444V4.37175H4.821C4.95132 4.63838 5.18063 4.8105 5.34169 5.04038L5.71294 5.82113L5.75025 5.78456C5.98032 5.622 6.08569 5.36269 6.08419 4.9665C5.99194 4.869 5.97882 4.74825 5.89819 4.63181C5.79282 4.47731 5.58694 4.39013 5.45288 4.26056L5.45307 4.26038Z" fill="#A9B2C3"/>
</g>
<defs>
<clipPath id="clip0_17_80">
<rect width="24" height="24" fill="white"/>
</clipPath>
</defs>
</svg>
