<svg width="24" height="24" viewBox="0 0 24 24" fill="none" xmlns="http://www.w3.org/2000/svg">
<path d="M3.52763 21.3981L1.6425 0.253494H22.3575L20.4705 21.3949L11.9874 23.7467L3.52763 21.3981Z" fill="#A9B2C3"/>
<path d="M12.0002 21.9491L18.855 20.0486L20.4677 1.98225H12.0002V21.9491Z" fill="#A9B2C3"/>
<path d="M12.0002 9.64293H15.4318L15.6688 6.98737H12.0002V4.39406H18.5031L18.4408 5.08987L17.8033 12.2362H12.0002V9.64293Z" fill="#F9F9F9"/>
<path d="M12.0156 16.3779L12.0041 16.3813L9.11607 15.6015L8.93138 13.5332H6.32851L6.69169 17.6051L12.0038 19.0794L12.0156 19.0761V16.3779Z" fill="#EBEBEB"/>
<path d="M15.2113 12.1266L14.8989 15.5994L12.0066 16.3802V19.0783L17.3229 17.6049L17.3619 17.1667L17.8131 12.1266H15.2113Z" fill="#F9F9F9"/>
<path d="M12.009 4.39406V6.98737H5.745L5.69307 6.40462L5.57494 5.08987L5.51288 4.39406H12.009ZM12.0002 9.64331V12.2366H9.1485L9.09657 11.6539L8.97825 10.3391L8.91638 9.64331H12.0002Z" fill="#EBEBEB"/>
</svg>
