<svg width="16" height="16" viewBox="0 0 16 16" fill="none" xmlns="http://www.w3.org/2000/svg">
<path d="M16 16H0V0H16V16ZM0.508548 15.4915H15.4909V0.508548H0.508548V15.4909V15.4915Z" fill="#2C3E50"/>
<path d="M3.94852 5.40338C3.74468 5.2138 3.64276 4.97933 3.64276 4.7005C3.64276 4.42167 3.74468 4.17664 3.94852 3.98705C4.15237 3.79747 4.41535 3.70294 4.73696 3.70294C5.05856 3.70294 5.31099 3.798 5.51483 3.98705C5.71867 4.17664 5.82059 4.4148 5.82059 4.7005C5.82059 4.98619 5.71867 5.2138 5.51483 5.40338C5.31099 5.59297 5.0517 5.68749 4.73696 5.68749C4.42222 5.68749 4.15237 5.59297 3.94852 5.40338ZM5.64897 6.49019V12.297H3.81439V6.49019H5.64897ZM11.7574 7.06369C12.1571 7.49778 12.3573 8.09399 12.3573 8.85285V12.1951H10.6146V9.08891C10.6146 8.70604 10.5153 8.40873 10.3173 8.19697C10.1187 7.9852 9.85254 7.87906 9.51774 7.87906C9.18293 7.87906 8.91624 7.9852 8.71821 8.19697C8.51965 8.40873 8.4209 8.70604 8.4209 9.08891V12.1951H6.66765V6.47435H8.4209V7.23321C8.59834 6.98025 8.83756 6.78064 9.13857 6.6333C9.43905 6.48649 9.77755 6.41309 10.1536 6.41309C10.8232 6.41309 11.3581 6.63013 11.7579 7.06422L11.7574 7.06369Z" fill="#2C3E50"/>
</svg>
