<svg width="24" height="24" viewBox="0 0 24 24" fill="none" xmlns="http://www.w3.org/2000/svg">
<g clip-path="url(#clip0_17_30)">
<path d="M12.0007 4.80037C8.80068 4.80037 6.80137 6.39974 6.00075 9.59981C7.20037 8.00024 8.60081 7.40043 10.2004 7.80037C11.1137 8.02799 11.7664 8.69024 12.4892 9.42412C13.6656 10.6179 15.0272 12 18.0007 12C21.2006 12 23.2001 10.4004 24.0007 7.19962C22.8009 8.80012 21.4007 9.39993 19.8009 8.99999C18.8878 8.77218 18.2359 8.11012 17.5121 7.37624C16.3365 6.18243 14.9752 4.80037 12.0007 4.80037ZM6.00075 12C2.80087 12 0.801373 13.5996 0.000747681 16.8004C1.20037 15.1999 2.60062 14.6001 4.20037 15C5.11369 15.2278 5.76637 15.8899 6.48919 16.6237C7.66556 17.8176 9.02718 19.1996 12.0007 19.1996C15.2006 19.1996 17.2001 17.6002 18.0007 14.4002C16.8009 15.9997 15.4007 16.5996 13.8009 16.1996C12.8878 15.972 12.2359 15.3097 11.5121 14.5759C10.3365 13.3821 8.97525 12 6.00075 12Z" fill="#A9B2C3"/>
</g>
<defs>
<clipPath id="clip0_17_30">
<rect width="24" height="24" fill="white"/>
</clipPath>
</defs>
</svg>
