<svg width="24" height="24" viewBox="0 0 24 24" fill="none" xmlns="http://www.w3.org/2000/svg">
<path d="M0 12C0 15.4862 5.37262 18.3126 12 18.3126C18.6274 18.3126 24 15.4862 24 12C24 8.51381 18.6272 5.68744 12 5.68744C5.37262 5.68744 0 8.51381 0 12Z" fill="url(#paint0_radial_17_43)"/>
<path d="M12 17.8438C18.3684 17.8438 23.5312 15.2273 23.5312 12C23.5312 8.77238 18.3684 6.15619 12 6.15619C5.63156 6.15619 0.46875 8.77238 0.46875 12C0.46875 15.2273 5.63156 17.8438 12 17.8438Z" fill="#A9B2C3"/>
<path d="M6.51976 12.7245C7.04344 12.7245 7.43419 12.6279 7.68151 12.4376C7.92638 12.249 8.09532 11.9226 8.18401 11.4673C8.26651 11.0417 8.23501 10.7447 8.09026 10.5842C7.94251 10.4203 7.62282 10.3373 7.1402 10.3373H6.30319L5.83951 12.7245H6.51976ZM3.78245 15.6651C3.76324 15.665 3.74428 15.6608 3.72693 15.6525C3.70957 15.6443 3.69425 15.6324 3.68206 15.6175C3.66987 15.6027 3.66112 15.5853 3.65643 15.5667C3.65175 15.5481 3.65124 15.5287 3.65495 15.5098L4.88438 9.18394C4.89019 9.15437 4.90607 9.12772 4.92932 9.10854C4.95257 9.08936 4.98175 9.07884 5.01188 9.07875H7.66201C8.49488 9.07875 9.11476 9.30488 9.50457 9.75094C9.89607 10.1991 10.0172 10.8261 9.86401 11.6138C9.80157 11.9346 9.69432 12.2325 9.54526 12.4995C9.39009 12.7741 9.1921 13.0222 8.95876 13.2345C8.67169 13.503 8.34676 13.698 7.99369 13.8126C7.64644 13.9258 7.2002 13.9832 6.66807 13.9832H5.59482L5.28844 15.5597C5.28266 15.5894 5.26674 15.6161 5.24341 15.6353C5.22008 15.6545 5.1908 15.6651 5.16057 15.6651H3.78245Z" fill="#2C3E50"/>
<path d="M6.41063 10.4674H7.14019C7.72275 10.4674 7.92507 10.5952 7.99388 10.6716C8.10769 10.7979 8.12944 11.0647 8.05594 11.4426C7.97363 11.8657 7.821 12.1659 7.60219 12.3343C7.37832 12.5068 7.01382 12.5942 6.51975 12.5942H5.99738L6.41082 10.4676L6.41063 10.4674ZM7.662 8.94862H5.01207C4.95164 8.94863 4.89309 8.96963 4.84643 9.00804C4.79978 9.04645 4.76792 9.09988 4.75632 9.15919L3.52688 15.4852C3.51962 15.5229 3.52077 15.5618 3.53025 15.5989C3.53973 15.6361 3.5573 15.6708 3.58171 15.7004C3.60613 15.73 3.63678 15.7538 3.67148 15.7702C3.70618 15.7866 3.74407 15.7951 3.78244 15.7952H5.16057C5.22099 15.7951 5.27952 15.7741 5.32614 15.7356C5.37275 15.6972 5.40457 15.6437 5.41613 15.5844L5.70207 14.1133H6.66788C7.21388 14.1133 7.67363 14.0537 8.03419 13.9363C8.40488 13.8159 8.74594 13.6117 9.04782 13.3294C9.29088 13.108 9.49715 12.8493 9.65888 12.5631C9.81469 12.2842 9.92682 11.973 9.99169 11.6385C10.1529 10.8092 10.0219 10.1452 9.60244 9.66525C9.18694 9.18956 8.53407 8.94844 7.662 8.94844V8.94862ZM5.68144 12.8544H6.51975C7.07532 12.8544 7.48913 12.75 7.761 12.5404C8.03307 12.3311 8.21625 11.9816 8.31188 11.4921C8.40282 11.0218 8.36138 10.6901 8.18719 10.4968C8.01263 10.3037 7.66388 10.2069 7.14019 10.2069H6.19594L5.68144 12.8544ZM7.66219 9.2085C8.45944 9.2085 9.04088 9.41794 9.4065 9.83625C9.77213 10.2547 9.882 10.8388 9.7365 11.5886C9.67613 11.8976 9.57469 12.18 9.43182 12.4357C9.28857 12.6919 9.10182 12.9259 8.871 13.1383C8.59575 13.3957 8.29032 13.5793 7.95375 13.6886C7.61738 13.7981 7.18875 13.8527 6.66807 13.8527H5.48757L5.16075 15.5346H3.78263L5.01225 9.2085H7.66219Z" fill="#F9F9F9"/>
<path d="M13.0236 13.9832C13.0044 13.9832 12.9854 13.979 12.968 13.9708C12.9506 13.9626 12.9352 13.9507 12.923 13.9359C12.9108 13.921 12.902 13.9037 12.8973 13.8851C12.8926 13.8664 12.892 13.847 12.8957 13.8281L13.4394 11.0291C13.4914 10.7629 13.4786 10.572 13.4038 10.491C13.3579 10.4417 13.2203 10.359 12.8132 10.359H11.8277L11.1441 13.878C11.1382 13.9076 11.1222 13.9343 11.0989 13.9535C11.0755 13.9726 11.0462 13.9831 11.016 13.983H9.64914C9.62993 13.983 9.61097 13.9788 9.59359 13.9706C9.57622 13.9624 9.56086 13.9505 9.54862 13.9357C9.53639 13.9209 9.52757 13.9036 9.52281 13.885C9.51805 13.8664 9.51745 13.847 9.52107 13.8281L10.7507 7.50206C10.7565 7.47243 10.7725 7.44573 10.7958 7.42655C10.8191 7.40736 10.8484 7.39687 10.8786 7.39687H12.2454C12.2647 7.39686 12.2836 7.40109 12.301 7.40926C12.3184 7.41744 12.3337 7.42935 12.346 7.44414C12.3582 7.45894 12.367 7.47626 12.3718 7.49486C12.3765 7.51347 12.3771 7.53289 12.3735 7.55175L12.0769 9.07875H13.1368C13.9444 9.07875 14.4919 9.22087 14.8108 9.51394C15.1358 9.81262 15.2374 10.2902 15.1123 10.9339L14.5403 13.878C14.5344 13.9076 14.5184 13.9342 14.4951 13.9534C14.4718 13.9725 14.4426 13.983 14.4124 13.983H13.0236V13.9832Z" fill="#2C3E50"/>
<path d="M12.2456 7.26656H10.8786C10.8181 7.26658 10.7595 7.28761 10.7129 7.32605C10.6662 7.3645 10.6344 7.41797 10.6228 7.47731L9.39339 13.8032C9.38609 13.8409 9.38722 13.8797 9.39668 13.9169C9.40615 13.9541 9.42372 13.9888 9.44813 14.0184C9.47255 14.0481 9.50321 14.0719 9.53793 14.0883C9.57264 14.1047 9.61055 14.1133 9.64895 14.1133H11.016C11.0765 14.1133 11.135 14.0923 11.1817 14.0538C11.2284 14.0154 11.2602 13.9619 11.2718 13.9026L11.9349 10.4891H12.8128C13.2193 10.4891 13.3048 10.5759 13.308 10.5799C13.3328 10.6061 13.3652 10.7289 13.3116 11.0044L12.7678 13.8032C12.7605 13.8409 12.7617 13.8798 12.7711 13.917C12.7806 13.9542 12.7982 13.9889 12.8226 14.0185C12.8471 14.0481 12.8778 14.072 12.9125 14.0884C12.9472 14.1048 12.9852 14.1133 13.0236 14.1133H14.4126C14.473 14.1133 14.5315 14.0922 14.5781 14.0538C14.6248 14.0153 14.6566 13.9619 14.6681 13.9026L15.2402 10.9588C15.3743 10.2677 15.2595 9.74944 14.8989 9.41813C14.5547 9.102 13.9783 8.94844 13.1368 8.94844H12.2349L12.5014 7.57688C12.5087 7.53915 12.5076 7.50027 12.4981 7.46303C12.4887 7.42578 12.4711 7.39109 12.4467 7.36143C12.4222 7.33178 12.3915 7.30789 12.3568 7.29149C12.322 7.27509 12.2841 7.26658 12.2456 7.26656ZM12.2456 7.52719L11.9188 9.20869H13.1368C13.9031 9.20869 14.4319 9.34256 14.7225 9.60994C15.0137 9.87731 15.1007 10.3103 14.9846 10.9093L14.4124 13.8529H13.0236L13.5675 11.0539C13.6294 10.7355 13.6065 10.5184 13.4991 10.4025C13.3916 10.2868 13.1629 10.2289 12.8132 10.2289H11.7203L11.016 13.8527H9.64876L10.8784 7.52663H12.2456V7.52719Z" fill="#F9F9F9"/>
<path d="M17.2755 12.7245C17.7992 12.7245 18.1901 12.6279 18.4376 12.4376C18.6821 12.249 18.8512 11.9226 18.9399 11.4673C19.0224 11.0417 18.9911 10.7447 18.8462 10.5842C18.6984 10.4203 18.3787 10.3373 17.8961 10.3373H17.0593L16.5952 12.7245H17.2755ZM14.5387 15.6651C14.5195 15.6651 14.5005 15.6609 14.4831 15.6527C14.4657 15.6445 14.4503 15.6325 14.4381 15.6177C14.4259 15.6028 14.4171 15.5854 14.4124 15.5668C14.4077 15.5481 14.4072 15.5287 14.4109 15.5098L15.6403 9.18394C15.6461 9.1543 15.6621 9.12761 15.6854 9.10842C15.7087 9.08924 15.738 9.07875 15.7682 9.07875H18.4181C19.251 9.07875 19.8709 9.30488 20.2605 9.75094C20.6522 10.1991 20.7731 10.8261 20.6199 11.6138C20.5614 11.924 20.4539 12.223 20.3014 12.4995C20.1461 12.7741 19.9482 13.0222 19.7149 13.2345C19.428 13.503 19.1027 13.698 18.7498 13.8126C18.4026 13.9258 17.9563 13.9832 17.424 13.9832H16.3509L16.0447 15.5597C16.0389 15.5894 16.023 15.6161 15.9996 15.6354C15.9763 15.6546 15.9469 15.6651 15.9167 15.6651H14.5387Z" fill="#2C3E50"/>
<path d="M17.1666 10.4674H17.8961C18.4787 10.4674 18.681 10.5952 18.7496 10.6716C18.864 10.7979 18.8854 11.0647 18.8121 11.4426C18.7296 11.8657 18.5769 12.1659 18.3581 12.3343C18.1341 12.5068 17.7696 12.5942 17.2757 12.5942H16.7533L17.1666 10.4674ZM18.4179 8.94862H15.768C15.7076 8.94867 15.6491 8.9697 15.6025 9.0081C15.5559 9.04651 15.524 9.09991 15.5124 9.15919L14.2828 15.4852C14.2756 15.5229 14.2767 15.5618 14.2862 15.599C14.2957 15.6362 14.3133 15.6708 14.3377 15.7004C14.3621 15.7301 14.3928 15.7539 14.4275 15.7703C14.4623 15.7867 14.5002 15.7952 14.5386 15.7952H15.9167C15.9771 15.7951 16.0356 15.7741 16.0823 15.7356C16.1289 15.6972 16.1607 15.6437 16.1723 15.5844L16.4582 14.1133H17.4238C17.9696 14.1133 18.4296 14.0537 18.7899 13.9363C19.1608 13.8159 19.5019 13.6117 19.8039 13.3292C20.0469 13.1078 20.2531 12.8492 20.4148 12.5631C20.5708 12.2842 20.6826 11.973 20.7476 11.6385C20.9089 10.8092 20.778 10.1452 20.3584 9.66525C19.9429 9.18956 19.2902 8.94844 18.4178 8.94844L18.4179 8.94862ZM16.4374 12.8544H17.2755C17.8313 12.8544 18.2449 12.75 18.5171 12.5404C18.789 12.3311 18.9724 11.9816 19.0676 11.4921C19.1589 11.0218 19.1175 10.6901 18.9429 10.4968C18.7686 10.3037 18.4196 10.2069 17.8961 10.2069H16.9521L16.4374 12.8544ZM18.4179 9.2085C19.215 9.2085 19.7968 9.41794 20.1623 9.83625C20.5279 10.2547 20.6379 10.8388 20.4921 11.5886C20.4321 11.8976 20.3304 12.18 20.1876 12.4357C20.0445 12.6919 19.8576 12.9259 19.6266 13.1383C19.3515 13.3957 19.0459 13.5793 18.7093 13.6886C18.3731 13.7981 17.9447 13.8527 17.4238 13.8527H16.2435L15.9163 15.5346H14.5382L15.7678 9.2085H18.4179Z" fill="#F9F9F9"/>
<defs>
<radialGradient id="paint0_radial_17_43" cx="0" cy="0" r="1" gradientUnits="userSpaceOnUse" gradientTransform="translate(7.20487 7.90669) scale(15.7578)">
<stop stop-color="#A9B2C3"/>
<stop offset="0.3" stop-color="#A9B2C3"/>
<stop offset="0.75" stop-color="#A9B2C3"/>
<stop offset="1" stop-color="#A9B2C3"/>
</radialGradient>
</defs>
</svg>
