<?xml version="1.0" ?><!DOCTYPE svg  PUBLIC '-//W3C//DTD SVG 1.1//EN'  'http://www.w3.org/Graphics/SVG/1.1/DTD/svg11.dtd'><svg height="512px" style="enable-background:new 0 0 512 512;" version="1.1" viewBox="0 0 512 512" width="512px" xml:space="preserve" xmlns="http://www.w3.org/2000/svg" xmlns:xlink="http://www.w3.org/1999/xlink"><g id="_x33__x2C__XD_x2C__Adobe"><g><path d="M0,0v512h512V0H0z M489.471,489.475H22.525V22.529h466.945V489.475z"/><g><path d="M265.795,137.064h-39.996l-42.932,89.794l-43.508-89.794H98.158l58.308,116.594L96.077,373.047h40.713l43.702-91.496     l44.209,91.496h44.067l-62.243-120.791L265.795,137.064z M376.358,137.064v60.004c0,0-6.918,0-11.525,0     c-39.329,0-86.875,25.363-86.875,90.145c0,50.081,25.375,87.723,79.422,87.723c39.796,0,58.544-13.766,58.544-13.766V137.064     H376.358z M376.32,340.466c0,0-4.555,2.005-15.304,2.005c-10.747,0-43.722-4.736-43.722-57.022c0-52.282,37.894-56.474,47-56.474     c9.111,0,12.025,2.552,12.025,2.552V340.466z"/></g></g></g><g id="Layer_1"/></svg>